<svg xmlns="http://www.w3.org/2000/svg" viewBox="0 0 512 512">
  <circle cx="256" cy="256" r="256" fill="#0f172a"/>
  <path d="M256 160c19.9 0 36 16.1 36 36s-16.1 36-36 36s-36-16.1-36-36s16.1-36 36-36zm70.4-33.1c19.1 5.1 30.2 24.7 25.1 43.8s-24.7 30.2-43.8 25.1s-30.2-24.7-25.1-43.8s24.7-30.2 43.8-25.1zm-140.8 0c19.1-5.1 38.7 6 43.8 25.1s-6 38.7-25.1 43.8s-38.7-6-43.8-25.1s6-38.7 25.1-43.8zm231.7 186.1c-15.1-15.1-35.1-23.1-56.1-23.1h-44.1c-11.1 0-21.1 4.1-29.1 11.1c-8-7-18-11.1-29.1-11.1h-44.1c-21 0-41 8-56.1 23.1c-15.1 15.1-23.1 35.1-23.1 56.1v44.1c0 43.1 35 78.1 78.1 78.1h112.2c43.1 0 78.1-35 78.1-78.1v-44.1c0-21-8-41-23.1-56.1z" fill="#3b82f6"/>
</svg>
